<svg width="19" height="20" viewBox="0 0 19 20" fill="none" xmlns="http://www.w3.org/2000/svg">
<path d="M9.375 8C7.375 8 6.375 9 6.375 11C6.375 12.5 7.869 14.535 9.375 16.5C10.375 17.5 10.875 18 11.875 18.5C12.875 19 14.375 19.5 16.375 18C18.375 16.5 17.875 14.5 16.875 12C15.875 9.5 14.542 6.5 11.875 2.5C11.041 1.5 10.375 1 9.372 1C8.372 1 7.749 1.45 6.875 2.5C4.208 6.5 2.875 9.5 1.875 12C0.875 14.5 0.375 16.5 2.375 18C4.375 19.5 5.875 19 6.875 18.5C7.875 18 8.375 17.5 9.375 16.5C10.881 14.535 12.375 12.5 12.375 11C12.375 9 11.375 8 9.375 8Z" stroke="#F4F3F1" stroke-width="2" stroke-linecap="round" stroke-linejoin="round"/>
</svg>
